<svg xmlns="http://www.w3.org/2000/svg" viewBox="0 0 64 64" role="img" aria-label="Trip Hunter Independence Day">
  <defs>
    <clipPath id="rounded">
      <rect width="64" height="64" rx="14" ry="14"/>
    </clipPath>
  </defs>
  <g clip-path="url(#rounded)">
    <rect width="64" height="21.333" y="0" fill="#FF9933"/>
    <rect width="64" height="21.334" y="21.333" fill="#FFFFFF"/>
    <rect width="64" height="21.333" y="42.667" fill="#138808"/>
    <g transform="translate(32 32)">
      <circle r="7.2" fill="none" stroke="#000080" stroke-width="1.6"/>
      <circle r="1.15" fill="#000080"/>
      <g stroke="#000080" stroke-width="0.9" stroke-linecap="round">
        <line y2="-6.6"/>
        <line y2="-6.6" transform="rotate(15)"/>
        <line y2="-6.6" transform="rotate(30)"/>
        <line y2="-6.6" transform="rotate(45)"/>
        <line y2="-6.6" transform="rotate(60)"/>
        <line y2="-6.6" transform="rotate(75)"/>
        <line y2="-6.6" transform="rotate(90)"/>
        <line y2="-6.6" transform="rotate(105)"/>
        <line y2="-6.6" transform="rotate(120)"/>
        <line y2="-6.6" transform="rotate(135)"/>
        <line y2="-6.6" transform="rotate(150)"/>
        <line y2="-6.6" transform="rotate(165)"/>
        <line y2="-6.6" transform="rotate(180)"/>
        <line y2="-6.6" transform="rotate(195)"/>
        <line y2="-6.6" transform="rotate(210)"/>
        <line y2="-6.6" transform="rotate(225)"/>
        <line y2="-6.6" transform="rotate(240)"/>
        <line y2="-6.6" transform="rotate(255)"/>
        <line y2="-6.6" transform="rotate(270)"/>
        <line y2="-6.6" transform="rotate(285)"/>
        <line y2="-6.6" transform="rotate(300)"/>
        <line y2="-6.6" transform="rotate(315)"/>
        <line y2="-6.6" transform="rotate(330)"/>
        <line y2="-6.6" transform="rotate(345)"/>
      </g>
    </g>
  </g>
</svg>
